<?xml version="1.0" encoding="UTF-8"?>
<svg version="1.1" xmlns="http://www.w3.org/2000/svg" width="256" height="256">
<path d="M0 0 C0.66209473 -0.00095673 1.32418945 -0.00191345 2.00634766 -0.00289917 C3.40852961 -0.00358076 4.8107147 -0.00172792 6.21289062 0.00244141 C8.36595713 0.00779004 10.51881502 0.0024958 12.671875 -0.00390625 C14.03125046 -0.00324546 15.3906258 -0.00196429 16.75 0 C18.61785156 0.00169189 18.61785156 0.00169189 20.5234375 0.00341797 C23.375 0.1328125 23.375 0.1328125 24.375 1.1328125 C24.47420863 3.06043067 24.50299365 4.99170604 24.50439453 6.921875 C24.50754669 8.1598584 24.51069885 9.3978418 24.51394653 10.67333984 C24.51215675 12.03483109 24.5101058 13.39632201 24.5078125 14.7578125 C24.50848559 16.14404314 24.50945566 17.53027367 24.51071167 18.91650391 C24.5121884 21.82520672 24.5100349 24.73387887 24.50537109 27.64257812 C24.49967381 31.37877848 24.50295294 35.11490702 24.50894356 38.85110474 C24.51254985 41.71460516 24.51141027 44.57808843 24.50881577 47.44158936 C24.50814668 48.81955982 24.50897426 50.19753182 24.51129532 51.57550049 C24.51382292 53.49825004 24.50929024 55.42100502 24.50439453 57.34375 C24.50359894 58.43993652 24.50280334 59.53612305 24.50198364 60.66552734 C24.375 63.1328125 24.375 63.1328125 23.375 64.1328125 C20.78140678 64.22132779 18.21460309 64.24807195 15.62109375 64.23046875 C14.84564713 64.2290538 14.0702005 64.22763885 13.27125549 64.22618103 C10.78496506 64.22056595 8.2987634 64.20801096 5.8125 64.1953125 C4.13086067 64.19029944 2.44921994 64.1857362 0.76757812 64.18164062 C-3.36334329 64.17144082 -7.49407182 64.15186855 -11.625 64.1328125 C-11.625 74.6928125 -11.625 85.2528125 -11.625 96.1328125 C-9.11592041 96.12757568 -6.60684082 96.12233887 -4.02172852 96.11694336 C4.24842883 96.10040779 12.5185869 96.08934141 20.78875637 96.08100033 C25.8052247 96.07577143 30.82167615 96.06867367 35.83813477 96.05737305 C40.67509694 96.0465444 45.51204284 96.04053571 50.34901619 96.03793526 C52.19868285 96.03608097 54.04834857 96.03246028 55.89800835 96.02708244 C58.47947014 96.0198723 61.06086382 96.01882155 63.64233398 96.01928711 C64.41485001 96.01569183 65.18736603 96.01209656 65.98329163 96.00839233 C71.26094784 96.01876034 71.26094784 96.01876034 72.375 97.1328125 C72.46290975 99.42432667 72.48194038 101.71853774 72.47265625 104.01171875 C72.47053383 105.04171242 72.47053383 105.04171242 72.46836853 106.09251404 C72.46275479 108.29349051 72.45020007 110.49436659 72.4375 112.6953125 C72.43248676 114.18424333 72.42792355 115.67317574 72.42382812 117.16210938 C72.41278093 120.81904325 72.39550713 124.47591808 72.375 128.1328125 C74.2003125 128.31650391 74.2003125 128.31650391 76.0625 128.50390625 C85.32164691 129.67556326 92.70551438 134.85067319 98.375 142.1328125 C104.73376358 152.79402308 106.09858674 164.01410696 103.796875 176.19140625 C100.64951798 185.13276143 93.44555813 192.42433361 85.39453125 197.1953125 C76.14670715 201.48830628 63.58361907 202.08096151 53.875 198.6953125 C44.43143878 194.07954769 37.21964558 186.08302812 33.2734375 176.44140625 C30.86470935 167.57100301 30.84493689 155.70425787 34.91796875 147.37109375 C40.83905112 138.27516828 48.62061685 130.76166171 59.375 128.1328125 C61.025 128.1328125 62.675 128.1328125 64.375 128.1328125 C64.375 120.2128125 64.375 112.2928125 64.375 104.1328125 C39.295 104.1328125 14.215 104.1328125 -11.625 104.1328125 C-11.625 112.0528125 -11.625 119.9728125 -11.625 128.1328125 C-8.985 128.4628125 -6.345 128.7928125 -3.625 129.1328125 C5.8743621 132.34989298 12.78367324 138.56881205 17.3125 147.4453125 C21.5422913 156.57879404 22.33854431 168.97075481 18.9375 178.6328125 C14.32173519 188.07637372 6.32521562 195.28816692 -3.31640625 199.234375 C-12.18680949 201.64310315 -24.05355463 201.66287561 -32.38671875 197.58984375 C-41.67522655 191.54339801 -48.69376123 183.92741789 -51.625 173.1328125 C-52.84708983 162.07074611 -52.49198468 151.60618899 -45.63671875 142.48828125 C-39.80775235 135.61231571 -33.52587256 130.30858135 -24.625 128.1328125 C-22.975 128.1328125 -21.325 128.1328125 -19.625 128.1328125 C-19.625 120.2128125 -19.625 112.2928125 -19.625 104.1328125 C-44.705 104.1328125 -69.785 104.1328125 -95.625 104.1328125 C-95.625 112.0528125 -95.625 119.9728125 -95.625 128.1328125 C-92.985 128.4628125 -90.345 128.7928125 -87.625 129.1328125 C-78.1256379 132.34989298 -71.21632676 138.56881205 -66.6875 147.4453125 C-62.4577087 156.57879404 -61.66145569 168.97075481 -65.0625 178.6328125 C-69.67826481 188.07637372 -77.67478438 195.28816692 -87.31640625 199.234375 C-96.18680949 201.64310315 -108.05355463 201.66287561 -116.38671875 197.58984375 C-125.67522655 191.54339801 -132.69376123 183.92741789 -135.625 173.1328125 C-136.84708983 162.07074611 -136.49198468 151.60618899 -129.63671875 142.48828125 C-123.80775235 135.61231571 -117.52587256 130.30858135 -108.625 128.1328125 C-106.95854819 128.10605196 -105.29138192 128.10200544 -103.625 128.1328125 C-103.63285522 126.73204468 -103.63285522 126.73204468 -103.64086914 125.30297852 C-103.6578762 121.84968454 -103.67043302 118.39643483 -103.67993164 114.94311523 C-103.68497121 113.44636332 -103.69180287 111.94961634 -103.70043945 110.45288086 C-103.71252159 108.30581443 -103.71823191 106.15881288 -103.72265625 104.01171875 C-103.73051147 102.07147827 -103.73051147 102.07147827 -103.73852539 100.09204102 C-103.625 97.1328125 -103.625 97.1328125 -102.625 96.1328125 C-100.03860962 96.03773429 -97.4790144 96.00724874 -94.89233398 96.01928711 C-93.67779541 96.01906807 -93.67779541 96.01906807 -92.4387207 96.0188446 C-89.74948492 96.01954396 -87.06031751 96.0273374 -84.37109375 96.03515625 C-82.51164284 96.03702035 -80.65219144 96.03844429 -78.79273987 96.03944397 C-73.88870904 96.04326979 -68.98470764 96.05310062 -64.08068848 96.06414795 C-59.08048908 96.07436069 -54.08028494 96.07894129 -49.08007812 96.08398438 C-39.26170372 96.09472283 -29.4433589 96.11232015 -19.625 96.1328125 C-19.625 85.5728125 -19.625 75.0128125 -19.625 64.1328125 C-22.13996094 64.14441406 -24.65492187 64.15601562 -27.24609375 64.16796875 C-29.6719551 64.17575923 -32.09781507 64.18183604 -34.52368164 64.18774414 C-36.21444316 64.1927844 -37.90520029 64.19961655 -39.59594727 64.20825195 C-42.02100707 64.22033107 -44.44600944 64.22604373 -46.87109375 64.23046875 C-48.01172523 64.23821068 -48.01172523 64.23821068 -49.17539978 64.24610901 C-50.9923257 64.24630488 -52.80913127 64.19478527 -54.625 64.1328125 C-56.50819268 62.24961982 -55.75554285 59.01351113 -55.7578125 56.5078125 C-55.75876923 55.84571777 -55.75972595 55.18362305 -55.76071167 54.50146484 C-55.76139326 53.09928289 -55.75954042 51.6970978 -55.75537109 50.29492188 C-55.75002246 48.14185537 -55.7553167 45.98899748 -55.76171875 43.8359375 C-55.76105796 42.47656204 -55.75977679 41.1171867 -55.7578125 39.7578125 C-55.75668457 38.51257813 -55.75555664 37.26734375 -55.75439453 35.984375 C-55.625 33.1328125 -55.625 33.1328125 -54.625 32.1328125 C-52.91727642 32.04567419 -51.20601351 32.02581243 -49.49609375 32.03515625 C-47.94438477 32.03999023 -47.94438477 32.03999023 -46.36132812 32.04492188 C-45.27271484 32.05330078 -44.18410156 32.06167969 -43.0625 32.0703125 C-41.4237793 32.07708008 -41.4237793 32.07708008 -39.75195312 32.08398438 C-37.04291505 32.09581424 -34.33398401 32.11229707 -31.625 32.1328125 C-31.63660156 31.06160156 -31.64820312 29.99039063 -31.66015625 28.88671875 C-31.66953299 27.48958507 -31.67863331 26.09244951 -31.6875 24.6953125 C-31.69587891 23.98826172 -31.70425781 23.28121094 -31.71289062 22.55273438 C-31.72153588 20.74587691 -31.67720011 18.93893647 -31.625 17.1328125 C-30.625 16.1328125 -30.625 16.1328125 -28.40014648 16.01928711 C-27.44180908 16.02452393 -26.48347168 16.02976074 -25.49609375 16.03515625 C-23.94438477 16.03999023 -23.94438477 16.03999023 -22.36132812 16.04492188 C-21.27271484 16.05330078 -20.18410156 16.06167969 -19.0625 16.0703125 C-17.4237793 16.07708008 -17.4237793 16.07708008 -15.75195312 16.08398438 C-13.04291505 16.09581424 -10.33398401 16.11229707 -7.625 16.1328125 C-7.63660156 15.06160156 -7.64820313 13.99039063 -7.66015625 12.88671875 C-7.66953299 11.48958507 -7.67863331 10.09244951 -7.6875 8.6953125 C-7.69587891 7.98826172 -7.70425781 7.28121094 -7.71289062 6.55273438 C-7.72153588 4.74587691 -7.67720011 2.93893647 -7.625 1.1328125 C-5.74180732 -0.75038018 -2.50569863 0.00226965 0 0 Z M0.375 8.1328125 C0.375 23.9728125 0.375 39.8128125 0.375 56.1328125 C5.655 56.1328125 10.935 56.1328125 16.375 56.1328125 C16.375 40.2928125 16.375 24.4528125 16.375 8.1328125 C11.095 8.1328125 5.815 8.1328125 0.375 8.1328125 Z M-23.625 24.1328125 C-23.625 34.6928125 -23.625 45.2528125 -23.625 56.1328125 C-18.345 56.1328125 -13.065 56.1328125 -7.625 56.1328125 C-7.625 45.5728125 -7.625 35.0128125 -7.625 24.1328125 C-12.905 24.1328125 -18.185 24.1328125 -23.625 24.1328125 Z M-47.625 40.1328125 C-47.625 45.4128125 -47.625 50.6928125 -47.625 56.1328125 C-42.345 56.1328125 -37.065 56.1328125 -31.625 56.1328125 C-31.625 50.8528125 -31.625 45.5728125 -31.625 40.1328125 C-36.905 40.1328125 -42.185 40.1328125 -47.625 40.1328125 Z M-120.5625 146.0078125 C-126.84374194 154.00750743 -127.79564283 161.02476189 -126.625 171.1328125 C-124.02398654 180.0196085 -118.16147868 185.32019572 -110.5 190.0703125 C-103.19401339 192.72855477 -94.20944164 192.31093899 -87.1875 189.1328125 C-81.1145692 185.59692845 -75.51338969 180.02613825 -73.06640625 173.30078125 C-71.36079669 164.92367236 -71.6636394 156.78149116 -76.0078125 149.3203125 C-80.08215631 143.80912281 -85.73499249 138.53564286 -92.625 137.1328125 C-103.97666001 135.89923772 -112.61872143 137.50134961 -120.5625 146.0078125 Z M-36.5625 146.0078125 C-42.84374194 154.00750743 -43.79564283 161.02476189 -42.625 171.1328125 C-40.02398654 180.0196085 -34.16147868 185.32019572 -26.5 190.0703125 C-19.19401339 192.72855477 -10.20944164 192.31093899 -3.1875 189.1328125 C2.8854308 185.59692845 8.48661031 180.02613825 10.93359375 173.30078125 C12.63920331 164.92367236 12.3363606 156.78149116 7.9921875 149.3203125 C3.91784369 143.80912281 -1.73499249 138.53564286 -8.625 137.1328125 C-19.97666001 135.89923772 -28.61872143 137.50134961 -36.5625 146.0078125 Z M48.6484375 144.76953125 C42.15331459 151.88856991 40.72539235 158.07321217 40.96875 167.625 C41.81580536 174.93899723 44.91830344 180.09129626 50.25 185.0703125 C58.24969493 191.35155444 65.26694939 192.30345533 75.375 191.1328125 C84.261796 188.53179904 89.56238322 182.66929118 94.3125 175.0078125 C96.97074227 167.70182589 96.55312649 158.71725414 93.375 151.6953125 C89.21812336 144.55581816 83.25395946 139.66533518 75.375 137.1328125 C65.12464091 134.98354366 56.28752491 137.52795291 48.6484375 144.76953125 Z " fill="#000000" transform="translate(143.625,47.8671875)"/>
<path d="M0 0 C5.89376246 3.91155535 12.41343959 8.56687927 15.5859375 15.046875 C17.13610121 17.69957464 17.13610121 17.69957464 20.26953125 18.3203125 C22.0175 18.55621094 22.0175 18.55621094 23.80078125 18.796875 C33.79405256 20.64289725 41.39371867 25.33726417 47.80078125 33.23828125 C55.24888764 44.08070695 56.32985569 54.56706804 55.30078125 67.421875 C53.15095959 78.40409651 46.35957085 86.48932684 37.50390625 92.98046875 C32.97687779 95.9423012 28.85863946 97.92713484 23.30078125 97.421875 C22.97078125 94.451875 22.64078125 91.481875 22.30078125 88.421875 C22.95304688 88.19113281 23.6053125 87.96039063 24.27734375 87.72265625 C34.34818411 83.9646583 39.36870723 78.90045373 44.30078125 69.421875 C46.98852322 61.35864908 46.19950526 51.17818293 42.54296875 43.5625 C37.91699085 35.59068903 31.99267596 31.60645069 23.30078125 28.421875 C21.20383473 28.11719046 19.0984145 27.86514944 16.98828125 27.671875 C13.39013369 27.21801243 11.82315258 26.96035026 9.2734375 24.33203125 C8.11686228 22.58798925 6.99969488 20.81721927 5.921875 19.0234375 C0.93146599 11.01473292 -6.91226919 7.16850904 -15.69921875 4.421875 C-27.57930526 1.6967577 -38.54756529 5.10432242 -48.69921875 11.421875 C-52.88387578 14.68850855 -55.46553681 17.88916778 -57.69921875 22.671875 C-59.50447897 25.80259206 -60.44561237 26.34786887 -63.9921875 27.3828125 C-65.95815999 27.71803349 -67.92446491 28.05260273 -69.89624023 28.35180664 C-78.00647861 29.63497814 -84.01613251 32.91492988 -89.13671875 39.359375 C-94.42692319 47.24984942 -96.58020867 54.96196106 -95.13671875 64.359375 C-93.17613904 72.70806872 -88.89714768 79.34963372 -81.80078125 84.171875 C-78.5134363 86.12717311 -75.16893463 87.81093548 -71.69921875 89.421875 C-72.02921875 92.061875 -72.35921875 94.701875 -72.69921875 97.421875 C-82.73006952 96.58597077 -89.90853804 91.73974349 -96.69921875 84.421875 C-103.99193464 74.48574397 -106.73392326 63.61913738 -105.07421875 51.421875 C-102.92442495 40.37589501 -97.2426205 31.63383674 -88.453125 24.6328125 C-83.54715132 21.36216338 -79.25809376 20.02521184 -73.44921875 19.046875 C-68.78397133 18.18629538 -66.14731778 17.69456582 -63.38671875 13.734375 C-62.96261719 13.033125 -62.53851563 12.331875 -62.1015625 11.609375 C-49.54275686 -7.98096249 -18.88100277 -11.03896544 0 0 Z " fill="#000000" transform="translate(152.69921875,13.578125)"/>
<path d="M0 0 C3.68069887 1.53643852 5.98775204 3.78150945 8.75 6.625 C9.54921875 7.44226563 10.3484375 8.25953125 11.171875 9.1015625 C11.77515625 9.72804687 12.3784375 10.35453125 13 11 C16.68069887 9.46356148 18.98775204 7.21849055 21.75 4.375 C22.54921875 3.55773437 23.3484375 2.74046875 24.171875 1.8984375 C24.77515625 1.27195313 25.3784375 0.64546875 26 0 C28.8605891 1.35937085 30.85927699 2.64520469 33 5 C31.46356148 8.68069887 29.21849055 10.98775204 26.375 13.75 C25.55773437 14.54921875 24.74046875 15.3484375 23.8984375 16.171875 C23.27195313 16.77515625 22.64546875 17.3784375 22 18 C23.53643852 21.68069887 25.78150945 23.98775204 28.625 26.75 C29.44226563 27.54921875 30.25953125 28.3484375 31.1015625 29.171875 C31.72804687 29.77515625 32.35453125 30.3784375 33 31 C31.64062915 33.8605891 30.35479531 35.85927699 28 38 C24.31930113 36.46356148 22.01224796 34.21849055 19.25 31.375 C18.45078125 30.55773437 17.6515625 29.74046875 16.828125 28.8984375 C16.22484375 28.27195313 15.6215625 27.64546875 15 27 C11.31930113 28.53643852 9.01224796 30.78150945 6.25 33.625 C5.45078125 34.44226563 4.6515625 35.25953125 3.828125 36.1015625 C3.22484375 36.72804687 2.6215625 37.35453125 2 38 C-0.8605891 36.64062915 -2.85927699 35.35479531 -5 33 C-3.46356148 29.31930113 -1.21849055 27.01224796 1.625 24.25 C2.44226563 23.45078125 3.25953125 22.6515625 4.1015625 21.828125 C4.72804688 21.22484375 5.35453125 20.6215625 6 20 C4.46356148 16.31930113 2.21849055 14.01224796 -0.625 11.25 C-1.44226563 10.45078125 -2.25953125 9.6515625 -3.1015625 8.828125 C-3.72804688 8.22484375 -4.35453125 7.6215625 -5 7 C-3.64062915 4.1394109 -2.35479531 2.14072301 0 0 Z " fill="#000000" transform="translate(114,193)"/>
<path d="M0 0 C5.75 1.875 5.75 1.875 8 3 C6.62212068 7.45630857 4.86841186 11.50872698 2.77734375 15.67578125 C2.47180069 16.28640915 2.16625763 16.89703705 1.85145569 17.52616882 C1.21040683 18.80526539 0.56743009 20.08339744 -0.07739258 21.3605957 C-1.0673315 23.32207319 -2.05071601 25.2867342 -3.03320312 27.25195312 C-7.85230045 36.85230045 -7.85230045 36.85230045 -9 38 C-11.5625 38.5625 -11.5625 38.5625 -15 38 C-17.9488244 35.58058752 -20.48393273 32.86090898 -23 30 C-21.64062915 27.1394109 -20.35479531 25.14072301 -18 23 C-15.525 23.99 -15.525 23.99 -13 25 C-12.64172119 24.27820557 -12.28344238 23.55641113 -11.91430664 22.81274414 C-10.29910544 19.56163067 -8.6808454 16.3120494 -7.0625 13.0625 C-6.49853516 11.92619141 -5.93457031 10.78988281 -5.35351562 9.61914062 C-4.81533203 8.53955078 -4.27714844 7.45996094 -3.72265625 6.34765625 C-3.22515869 5.34742432 -2.72766113 4.34719238 -2.21508789 3.31665039 C-1 1 -1 1 0 0 Z " fill="#000000" transform="translate(220,194)"/>
<path d="M0 0 C5.75 1.875 5.75 1.875 8 3 C6.62212068 7.45630857 4.86841186 11.50872698 2.77734375 15.67578125 C2.47180069 16.28640915 2.16625763 16.89703705 1.85145569 17.52616882 C1.21040683 18.80526539 0.56743009 20.08339744 -0.07739258 21.3605957 C-1.0673315 23.32207319 -2.05071601 25.2867342 -3.03320312 27.25195312 C-7.85230045 36.85230045 -7.85230045 36.85230045 -9 38 C-11.5625 38.5625 -11.5625 38.5625 -15 38 C-17.9488244 35.58058752 -20.48393273 32.86090898 -23 30 C-21.64062915 27.1394109 -20.35479531 25.14072301 -18 23 C-15.525 23.99 -15.525 23.99 -13 25 C-12.64172119 24.27820557 -12.28344238 23.55641113 -11.91430664 22.81274414 C-10.29910544 19.56163067 -8.6808454 16.3120494 -7.0625 13.0625 C-6.49853516 11.92619141 -5.93457031 10.78988281 -5.35351562 9.61914062 C-4.81533203 8.53955078 -4.27714844 7.45996094 -3.72265625 6.34765625 C-3.22515869 5.34742432 -2.72766113 4.34719238 -2.21508789 3.31665039 C-1 1 -1 1 0 0 Z " fill="#000000" transform="translate(52,194)"/>
</svg>
