<svg xmlns="http://www.w3.org/2000/svg" enable-background="new 0 0 48 48" viewBox="0 0 48 48"><path d="M24,0.5C11.04,0.5,0.5,11.04,0.5,24c0,3.24,0.69,6.34,1.91,9.18c0.03,0.1,0.08,0.2,0.13,0.3c3.22,7.25,10,12.67,18.25,13.8
	c0.07,0.01,0.14,0.01,0.2,0.01c0.58,0,1.12-0.34,1.36-0.88c0.27-0.6,0.12-1.32-0.38-1.75c-0.05-0.04-3.64-3.29-5.66-10.42h9.81
	c0.83,0,1.5-0.67,1.5-1.5s-0.67-1.5-1.5-1.5H15.59c-0.4-2.13-0.64-4.54-0.64-7.24c0-2.61,0.22-5.03,0.6-7.24h16.88
	c0.22,1.27,0.39,2.58,0.49,3.95c0.06,0.83,0.79,1.45,1.61,1.38c0.83-0.06,1.45-0.78,1.38-1.61c-0.1-1.29-0.26-2.52-0.45-3.73h7.7
	c0.85,2.25,1.33,4.69,1.33,7.24c0,0.5-0.02,1.04-0.07,1.65c-0.07,0.83,0.55,1.55,1.38,1.61c0.81,0.06,1.55-0.55,1.61-1.38
	c0.05-0.69,0.08-1.31,0.08-1.88C47.5,11.04,36.96,0.5,24,0.5z M17.02,4.72c-1.67,2.29-3.02,5.39-3.9,9.04H6.26
	C8.66,9.62,12.46,6.38,17.02,4.72z M17.01,43.27c-4.57-1.66-8.35-4.91-10.74-9.04h6.9C14.19,38.23,15.68,41.21,17.01,43.27z
	 M12.54,31.24h-7.7C3.98,28.97,3.5,26.53,3.5,24c0-2.55,0.48-4.98,1.33-7.24h7.68c-0.36,2.27-0.56,4.7-0.56,7.24
	C11.95,26.67,12.18,29.07,12.54,31.24z M16.19,13.76C17.86,7.38,21,3.5,24,3.5c3.18,0,6.16,4.17,7.78,10.26H16.19z M34.87,13.76
	c-0.89-3.67-2.25-6.77-3.92-9.05c4.57,1.65,8.39,4.9,10.79,9.05H34.87z"/><path d="M47.06 42.35c-1.7-2.9-5.2-4.37-10.4-4.37s-8.7 1.47-10.4 4.37c-.29.5-.44 1.08-.44 1.71 0 1.9 1.54 3.44 3.44 3.44h14.81c1.9 0 3.44-1.54 3.44-3.44C47.5 43.44 47.35 42.85 47.06 42.35L47.06 42.35zM44.06 44.5H29.25c-.24 0-.44-.2-.44-.44 0-.1.02-.17.03-.19 1.4-2.38 5.02-2.88 7.81-2.88s6.42.5 7.82 2.88c.01.02.03.08.03.19C44.5 44.3 44.3 44.5 44.06 44.5zM42.33 31.04c0-3.13-2.55-5.68-5.68-5.68-3.13 0-5.68 2.55-5.68 5.68 0 3.13 2.55 5.68 5.68 5.68C39.78 36.72 42.33 34.17 42.33 31.04zM33.98 31.04c0-1.48 1.2-2.68 2.68-2.68 1.48 0 2.68 1.2 2.68 2.68 0 1.48-1.2 2.68-2.68 2.68C35.18 33.72 33.98 32.52 33.98 31.04z"/></svg>